<svg width="728" height="339" viewBox="0 0 728 339" fill="none" xmlns="http://www.w3.org/2000/svg">
<g clip-path="url(#clip0_1_153)">
<path fill-rule="evenodd" clip-rule="evenodd" d="M260.587 268.055L285.25 297.566L27.0864 338.522L-0.00012207 312.049L260.587 268.055Z" fill="#5A0093" style="fill:#5A0093;fill:color(display-p3 0.3529 0.0000 0.5765);fill-opacity:1;"/>
<path fill-rule="evenodd" clip-rule="evenodd" d="M-0.00012207 312.049V31.2611L197.887 0.000183105L260.587 76.4363V268.055L-0.00012207 312.049Z" fill="black" style="fill:black;fill-opacity:1;"/>
<path fill-rule="evenodd" clip-rule="evenodd" d="M247.275 0L226.121 13.9697L257.562 52.5455L247.275 0Z" fill="#9C00FF" style="fill:#9C00FF;fill:color(display-p3 0.6118 0.0000 1.0000);fill-opacity:1;"/>
<path fill-rule="evenodd" clip-rule="evenodd" d="M12.9265 41.7792L122.705 23.5408V53.4658L50.2127 65.5096V80.3922L117.744 69.1726V98.9374L50.2127 110.157V125.84L123.825 113.61V143.375L12.9265 161.799V41.7792ZM143.029 20.1643L180.315 13.9696V104.225L245.285 93.4308V123.196L143.029 140.184V20.1643ZM12.9265 174.447L50.2127 168.252V258.508L115.184 247.713V277.478L12.9265 294.467V174.447ZM185.321 236.365C201.964 233.6 210.125 228.884 210.125 222.643C210.125 204.88 118.11 244.011 118.11 192.322C118.11 171.039 136.673 151.791 179.24 144.719C229.649 136.345 246.931 159.878 246.931 178.921L211.245 184.85C207.725 175.513 201.164 170.842 179.72 174.405C166.118 176.665 156.996 180.421 156.996 186.822C156.996 206.665 249.012 164.173 249.012 217.142C249.012 234.265 233.649 258.101 183.401 266.449C136.833 274.186 116.509 257.239 116.509 230.994L152.195 225.065C156.516 236.99 165.798 239.609 185.321 236.365Z" fill="white" style="fill:white;fill-opacity:1;"/>
<path d="M287.636 76.9144V121.649L328.971 118.851V107.757L301.534 109.614V103.769L326.704 102.065V90.9709L301.534 92.6748V87.1276L328.554 85.2986V74.1447L287.636 76.9144Z" fill="#7B00CA" style="fill:#7B00CA;fill:color(display-p3 0.4824 0.0000 0.7922);fill-opacity:1;"/>
<path d="M334.638 73.7328L337.74 86.9434L342.333 86.6325L345.434 73.002L334.638 73.7328Z" fill="#7B00CA" style="fill:#7B00CA;fill:color(display-p3 0.4824 0.0000 0.7922);fill-opacity:1;"/>
<path d="M351.697 72.5781V117.313L389.811 114.733V103.639L365.594 105.278V71.6374L351.697 72.5781Z" fill="black" style="fill:black;fill-opacity:1;"/>
<path d="M394.284 69.6953V114.43L435.619 111.632V100.538L408.182 102.395V96.5499L433.353 94.8461V83.7518L408.182 85.4557V79.9085L435.202 78.0795V66.9256L394.284 69.6953Z" fill="black" style="fill:black;fill-opacity:1;"/>
<path d="M453.574 65.682L438.304 111.451L451.963 110.526L454.707 102.407L475.404 101.006L478.088 108.758L491.807 107.829L476.538 64.1275L453.574 65.682ZM463.475 76.106L466.636 75.892L471.587 90.1704L458.524 91.0546L463.475 76.106Z" fill="black" style="fill:black;fill-opacity:1;"/>
<path d="M519.602 92.0498L528.549 105.342L543.938 104.3L533.798 89.2398C538.57 86.2924 541.791 81.0044 541.791 75.159C541.791 66.6295 534.872 60.1789 526.342 60.7562L495.087 62.8719V107.607L508.985 106.666V92.7685L519.602 92.0498ZM523.539 72.0403C525.925 71.8788 527.893 73.7139 527.893 76.1594C527.893 78.6049 525.925 80.7065 523.539 80.868L508.985 81.8531V73.0254L523.539 72.0403Z" fill="black" style="fill:black;fill-opacity:1;"/>
<path d="M581.814 57.0013V81.3968L562.906 58.2812L548.412 59.2623V103.997L562.309 103.057V78.6611L581.158 101.781L595.652 100.8V56.0646L581.814 57.0013Z" fill="black" style="fill:black;fill-opacity:1;"/>
<path d="M616.111 54.6797L602.213 55.6205V100.355L616.111 99.4147V54.6797Z" fill="black" style="fill:black;fill-opacity:1;"/>
<path d="M656.074 51.9746V76.3701L637.166 53.2545L622.672 54.2356V98.9706L636.57 98.0298V73.6343L655.418 96.754L669.912 95.7728V51.0379L656.074 51.9746Z" fill="black" style="fill:black;fill-opacity:1;"/>
<path d="M701.465 94.1142C707.549 93.7023 712.5 91.5182 715.959 88.242V92.6559L727.948 91.8443V65.7191L698.602 67.7056V76.8315L714.051 75.7858C714.051 79.2453 710.711 82.3941 702.121 82.9755C694.725 83.4761 688.88 79.2194 688.88 72.1214C688.88 65.0831 694.248 60.0673 701.644 59.5667C709.279 59.0499 712.44 61.6393 713.574 63.6502L726.875 62.7498C726.875 56.7255 721.208 47.1481 701.465 48.4845C683.81 49.6796 674.386 61.71 674.386 73.1025C674.386 84.5547 683.81 95.3093 701.465 94.1142Z" fill="black" style="fill:black;fill-opacity:1;"/>
<path d="M310.898 169.697C303.621 170.19 300.162 168.873 298.551 164.27L285.25 165.17C285.25 174.952 292.825 182.015 310.182 180.84C328.911 179.572 334.637 171.251 334.637 164.869C334.637 145.126 300.341 157.588 300.341 150.192C300.341 147.806 303.741 146.74 308.811 146.397C316.803 145.856 319.249 147.838 320.561 151.447L333.862 150.547C333.862 143.449 327.42 134.043 308.632 135.315C292.766 136.389 285.847 142.882 285.847 150.815C285.847 170.081 320.143 158.872 320.143 165.492C320.143 167.819 317.101 169.277 310.898 169.697Z" fill="black" style="fill:black;fill-opacity:1;"/>
<path d="M372.096 131.437L360.465 149.223L348.834 133.011L333.147 134.073L353.427 162.285V177.435L367.265 176.499V161.706L387.783 130.375L372.096 131.437Z" fill="black" style="fill:black;fill-opacity:1;"/>
<path d="M412.536 162.817C405.26 163.31 401.8 161.993 400.19 157.39L386.888 158.29C386.888 168.072 394.464 175.135 411.821 173.96C430.55 172.692 436.276 164.371 436.276 157.989C436.276 138.246 401.979 150.708 401.979 143.312C401.979 140.926 405.379 139.86 410.449 139.517C418.442 138.976 420.887 140.958 422.199 144.567L435.5 143.667C435.5 136.569 429.059 127.163 410.27 128.435C394.404 129.509 387.485 136.002 387.485 143.935C387.485 163.201 421.782 151.992 421.782 158.612C421.782 160.939 418.74 162.397 412.536 162.817Z" fill="black" style="fill:black;fill-opacity:1;"/>
<path d="M437.767 126.991V138.145L454.289 137.027V170.608L468.187 169.667V136.086L484.709 134.968V123.814L437.767 126.991Z" fill="black" style="fill:black;fill-opacity:1;"/>
<path d="M489.183 123.511V168.246L530.518 165.448V154.354L503.081 156.211V150.366L528.251 148.662V137.567L503.081 139.271V133.724L530.1 131.895V120.741L489.183 123.511Z" fill="black" style="fill:black;fill-opacity:1;"/>
<path d="M577.639 117.523L565.948 146.647L554.257 119.106L536.483 120.309V165.044L550.38 164.103V141.02L559.924 163.457L571.972 162.642L581.516 138.913V161.996L595.413 161.055V116.32L577.639 117.523Z" fill="black" style="fill:black;fill-opacity:1;"/>
<path d="M625.237 148.419C617.96 148.912 614.5 147.595 612.89 142.992L599.589 143.893C599.589 153.675 607.164 160.737 624.521 159.562C643.25 158.294 648.976 149.974 648.976 143.591C648.976 123.848 614.679 136.31 614.679 128.914C614.679 126.528 618.079 125.463 623.149 125.119C631.142 124.578 633.587 126.56 634.899 130.169L648.201 129.269C648.201 122.171 641.759 112.765 622.97 114.037C607.104 115.111 600.185 121.604 600.185 129.537C600.185 148.803 634.482 137.594 634.482 144.215C634.482 146.541 631.44 147.999 625.237 148.419Z" fill="black" style="fill:black;fill-opacity:1;"/>
<path d="M299.625 196.582L284.355 242.351L298.014 241.426L300.758 233.308L321.456 231.907L324.14 239.658L337.858 238.729L322.589 195.028L299.625 196.582ZM309.526 207.006L312.688 206.792L317.638 221.071L304.576 221.955L309.526 207.006Z" fill="black" style="fill:black;fill-opacity:1;"/>
<path d="M382.296 190.986L370.605 220.11L358.914 192.569L341.139 193.772V238.507L355.037 237.567V214.483L364.581 236.921L376.629 236.105L386.173 212.376V235.459L400.07 234.518V189.783L382.296 190.986Z" fill="black" style="fill:black;fill-opacity:1;"/>
<path d="M420.529 188.398L406.631 189.339V234.074L420.529 233.133V188.398Z" fill="black" style="fill:black;fill-opacity:1;"/>
<path d="M456.436 185.968L440.988 203.237V187.014L427.09 187.954V232.689L440.988 231.748V220.654L447.847 213.032L459.597 230.489L475.046 229.443L457.033 202.748L473.018 184.845L456.436 185.968Z" fill="black" style="fill:black;fill-opacity:1;"/>
<path d="M500.396 193.669C507.793 193.168 513.578 197.429 513.578 204.467C513.578 211.565 507.793 216.609 500.396 217.11C493 217.611 487.155 213.354 487.155 206.256C487.155 199.218 493 194.169 500.396 193.669ZM500.396 228.204C518.052 227.009 528.072 214.938 528.072 203.486C528.072 192.094 518.052 181.379 500.396 182.575C482.681 183.774 472.661 195.845 472.661 207.237C472.661 218.689 482.681 229.403 500.396 228.204Z" fill="black" style="fill:black;fill-opacity:1;"/>
<path d="M573.702 178.03L562.011 207.153L550.321 179.613L532.546 180.816V225.551L546.444 224.61V201.527L555.987 223.964L568.036 223.148L577.579 199.419V222.502L591.477 221.562V176.827L573.702 178.03Z" fill="black" style="fill:black;fill-opacity:1;"/>
<path d="M694.332 170.471L599.344 176.9V221.504L694.332 215.075V170.471Z" fill="#7B00CA" style="fill:#7B00CA;fill:color(display-p3 0.4824 0.0000 0.7922);fill-opacity:1;"/>
<path d="M625.213 202.505C629.201 202.235 632.426 198.791 632.426 194.803C632.426 190.815 629.201 187.782 625.213 188.052L612.157 188.936V207.986L618.075 207.585V202.988L625.213 202.505ZM623.994 192.859C625.391 192.764 626.534 193.83 626.534 195.227C626.534 196.624 625.391 197.819 623.994 197.914L618.075 198.314V193.26L623.994 192.859Z" fill="white" style="fill:white;fill-opacity:1;"/>
<path d="M658.308 185.812L655.616 199.558L653.025 186.169L644.719 186.732L642.129 200.471L639.462 187.088L633.569 187.486L637.328 206.282L646.167 205.684L648.885 191.327L651.577 205.317L660.416 204.719L664.176 185.415L658.308 185.812Z" fill="white" style="fill:white;fill-opacity:1;"/>
<path d="M665.191 185.346V190.096L672.227 189.619V203.92L678.145 203.519V189.219L685.181 188.743V183.993L665.191 185.346Z" fill="white" style="fill:white;fill-opacity:1;"/>
</g>
<defs>
<clipPath id="clip0_1_153">
<rect width="728" height="339" fill="white" style="fill:white;fill-opacity:1;"/>
</clipPath>
</defs>
</svg>
